<svg xmlns="http://www.w3.org/2000/svg" xmlns:xlink="http://www.w3.org/1999/xlink" fill="none" version="1.1"
  viewBox="0 0 256 256">
  <defs>
    <linearGradient id="logos" x1="43.376%" x2="50.316%" y1="2.242%" y2="89.03%">
      <stop offset="0%" stop-color="#FFEA83" />
      <stop offset="8.333%" stop-color="#FFDD35" />
      <stop offset="100%" stop-color="#FFA800" />
    </linearGradient>
  </defs>
  <g>
    <g>
      <path
        d="M188.878654296875,49.730558203125L176.458654296875,26.462158203125L164.048654296875,49.740058203125L140.77965429687498,62.141058203125L164.038654296875,74.560958203125L176.477654296875,97.801158203125L188.878654296875,74.551558203125L212.137654296875,62.141058203125L188.878654296875,49.730558203125ZM131.699654296875,73.342358203125L108.362354296875,71.499958203125L105.496354296875,95.246258203125L78.88415429687501,95.860458203125L81.750154296875,73.342358203125L58.413254296875,71.090558203125L55.547354296875,96.883958203125L29.344544296875,97.702758203125L27.911584296875,114.284258203125L53.090854296875,113.465458203125L50.224854296875,141.101158203125L26.069204296875,141.920158203125L25.045654296875,158.297158203125L48.382554296875,157.683158203125L44.697754296875004,181.429158203125L68.034554296875,183.066158203125L71.719354296875,156.659158203125L97.922154296875,156.250158203125L94.646754296875,183.066158203125L117.369554296875,184.909158203125L121.258954296875,155.431158203125L145.00565429687498,154.817158203125L146.028654296875,138.235158203125L123.101354296875,138.645158203125L126.581654296875,111.418358203125L148.280654296875,110.599458203125L149.713654296875,93.813358203125L128.833654296875,94.018058203125L131.699654296875,73.342358203125ZM73.15235429687499,140.07815820312499L76.83705429687501,112.646558203125L103.039854296875,112.032458203125L99.355054296875,139.66815820312502L73.15235429687499,140.07815820312499ZM185.877654296875,139.37015820312502L201.552654296875,168.773158203125L230.955654296875,184.458158203125L201.552654296875,200.133158203125L185.877654296875,229.536158203125L170.192654296875,200.133158203125L140.789654296875,184.458158203125L170.192654296875,168.773158203125L185.877654296875,139.37015820312502Z"
        fill-rule="evenodd" fill="url(#logos)" fill-opacity="1" />
    </g>
  </g>
</svg>
